<svg width="477" height="439" viewBox="0 0 477 439" fill="none" xmlns="http://www.w3.org/2000/svg">
<path fill-rule="evenodd" clip-rule="evenodd" d="M437.27 239.375C437.27 129.625 348.329 40.6051 238.48 40.6051C128.71 40.6051 39.7103 129.625 39.7103 239.375C39.7103 325.156 101.064 438.125 238.48 438.125C376.214 438.125 437.27 324.977 437.27 239.375ZM238.48 398.375C150.812 398.375 79.4603 327.024 79.4603 239.375C79.4603 151.667 150.812 80.3551 238.48 80.3551C326.169 80.3551 397.52 151.667 397.52 239.375C397.52 327.024 326.169 398.375 238.48 398.375ZM15.9397 154.211C5.30662 137.834 0 118.992 0 100.19C0 45.395 44.3809 0.914749 99.1961 0.914749C118.038 0.914749 136.879 6.24125 153.276 16.8744C90.2325 41.0623 40.1475 91.187 15.9397 154.211ZM377.685 0.875C358.863 0.875 340.022 6.2015 323.645 16.8346C386.648 41.0424 436.813 91.1473 461.06 154.151C471.673 137.794 476.98 118.972 476.98 100.151C476.98 45.2757 432.54 0.875 377.685 0.875Z" fill="#F0B100"/>
<path d="M294.958 236.5C294.958 267.688 269.688 292.958 238.5 292.958C207.312 292.958 182.042 267.688 182.042 236.5C182.042 205.312 207.312 180.042 238.5 180.042C269.688 180.042 294.958 205.312 294.958 236.5ZM191.256 173.278L150.673 132.696L134.707 148.662L175.289 189.256C179.828 183.192 185.203 177.817 191.256 173.278ZM238.5 157.458C242.339 157.458 246.088 157.831 249.792 158.362V101H227.208V158.362C230.912 157.831 234.661 157.458 238.5 157.458ZM301.711 189.244L342.293 148.651L326.327 132.684L285.744 173.278C291.797 177.817 297.172 183.192 301.711 189.244ZM159.458 236.5C159.458 232.661 159.831 228.912 160.362 225.208H103V247.792H160.362C159.831 244.088 159.458 240.339 159.458 236.5ZM285.756 299.711L326.338 340.282L342.316 324.315L301.733 283.733C297.183 289.797 291.808 295.172 285.756 299.711ZM175.278 283.744L134.707 324.315L150.673 340.282L191.244 299.711C185.192 295.172 179.828 289.808 175.278 283.744ZM316.638 225.208C317.169 228.912 317.542 232.661 317.542 236.5C317.542 240.339 317.169 244.088 316.638 247.792H374V225.208H316.638ZM238.5 315.542C234.661 315.542 230.912 315.169 227.208 314.638V372H249.792V314.638C246.088 315.169 242.339 315.542 238.5 315.542Z" fill="#F0B100"/>
</svg>
